<svg id="Calque_1" xmlns="http://www.w3.org/2000/svg" version="1.1" viewBox="0 0 739.62 462.11">
  <defs>
    <style>
      .st3{fill:#fff}.st4{fill:#f9ec42}.st8{fill:#e65920}.st11{fill:#f7b5ca}.st12{fill:#0f9853}
    </style>
  </defs>
  <path d="M653.95 89.83c12.19-.2 25.07-.72 37.59-.86 11.24.13 23.78-.76 33.41 5.78 9.23 6.11 6.98 18.72-2 23.63-3.13 1.68-6.49 1.97-10.05 2.02-29.84-.15-100.3.73-129.62-.03-12.67-.82-20-17.85-7.69-25.43 5.45-3.42 12.3-3.96 18.64-4.2 19.7-.39 40.08-.56 59.52-.92h.2Z" style="fill:#9cdae3"/>
  <path class="st12" d="M524.69 429.91c-5.56 8.76-19.65 9.92-25.89 1.29-7.5-9.78.36-23.89 12.32-24.39 12.23-.95 20.6 12.6 13.68 22.93z"/>
  <path class="st11" d="M709.06 287.51c6.03 4.71 7.09 14.42 1.55 19.73-8.94 8.08-23.82 6.66-35.31 7.2-9.77.17-19.98.41-29.23-.33-10.76-.33-25.84-3.29-25.82-16.73.8-14.22 18.21-14.19 29.18-14.13 10.47-.12 20.94-.06 31.41-.05 9.46.32 20.61-1.47 28.08 4.2z"/>
  <path d="M661.46 335.68c9.45 3.9 11.78 17.29 4.77 24.58-8.8 9.77-24.66 3.85-25.47-9.1-.89-10.77 10.51-20.02 20.52-15.55l.17.07Z" style="fill:#d5c5f5"/>
  <path class="st4" d="M171.24 286.29c6.91.37 13.52 1.17 18.61 4.99 9.21 7.11 5.08 19.13-5.08 22.81-4.68 1.91-10.11 2.48-15.23 2.73-28.31 1.02-59.05.32-87.42-1.3-6.61-.43-14.67-1.18-19.11-6.35-6.51-7.8-1.19-18.81 8.18-21.15 7.26-2.14 16.11-1.41 24.01-1.62 25.26-.16 50.57-.61 75.82-.12h.21Z"/>
  <path class="st12" d="M43.32 263.86c-8.87 12.54-28.69 6.69-28.38-9.12.02-8.68 8.17-16.24 16.83-15.36 11.97.78 18.72 14.38 11.66 24.31l-.12.17Z"/>
  <path d="M303.52 9.96c16.92.72 17.31 22.12 17.54 37.37.03 10.01-.27 20.6-3.68 28.09-3.76 9.6-15.87 14.69-22.78 5.1-5.82-8.6-5.08-21.02-5.34-31.75.31-13.06-1.3-36.14 14.11-38.8h.14Z" style="fill:#0b924b"/>
  <path class="st11" d="M269.88 95.88c11.54-2.23 21.74 10.07 17.02 20.88-4.03 10.13-18.43 12.49-25.61 4.33-8.13-8.53-3.11-23.17 8.4-25.18z"/>
  <path class="st8" d="M531.37 111.51c-5.39 9.8-19.83 10.28-26.1 1.17-6.32-8.06-1.79-20.34 7.63-23.52 13.3-4.87 24.83 10.19 18.56 22.18l-.1.18Z"/>
  <path class="st11" d="M245.66 286.8c11.2-2.71 21.5 8.87 17.63 19.7-4.06 12.39-22.33 14.21-27.85 1.96-4.05-8.29.88-19.64 10.03-21.62z"/>
  <path class="st4" d="M319.94 446.44c-7.02 7.29-21.11 3.94-24-5.69-1.7-5.55-1.13-11.1-1.3-17.18-.04-9.38-.12-19.42.69-28.83.75-7.7 1.8-12.42 5.17-15.3 4.5-3.63 11.42-3.87 16.41-.99 7.32 4.39 8.38 13.3 8.87 21.53.41 8.06.63 16.84.21 25.38-.53 8.32-1 15.8-5.93 20.95l-.12.12Z"/>
  <path class="st8" d="M348.63 346.31c13.35 10.31 3.08 30.86-12.98 27.35-10.69-2.47-15.36-16.14-8.1-24.48 4.92-6.2 14.43-8.04 20.91-2.99z"/>
  <path class="st3" d="M240.95 235.85c-10.57 49.58-102.7 46.57-113.83-1.65-.3-1.38-.98-3.87.04-4.97.52-.68 2.07-.76 3.03-.73 6.24 0 18.78-.05 25.39.02.21 0 .44 0 .69.01 1.67-.04 2.77 1.05 3.39 2.54 2.55 10.78 14.8 16.18 27.7 16.43 11.28.21 21.36-4.99 19.54-15.54-3.07-7.27-9.55-11.5-16.8-14.46-14.32-5.9-33.67-6.43-46.02-16.78-57.83-61.17 82.51-100.71 94.66-31.34-.11 1.32-.9 2.04-1.95 2.41-1.05.38-2.38.4-3.53.42-6.81.19-15.29 1.97-21.2 1.53-8.87-.94-6.93-13.59-21.71-16.54-9.57-2.51-26.88-.08-25.96 12.33 13.95 31.33 85.2 10.91 76.61 66.1l-.04.21Zm64.02-48.65c.7 6.92.26 16.56.18 22.75 0 .44-.13 1.03-.51 1.27-7.76.74-41.11.03-50.01.27-1.78.09-2.3-.35-2.3-2.27.42-6.46-.94-16.02.49-22.02.06-.25.14-.45.37-.47 7.46-.02 39.54-1.12 51.71.4l.06.07Z"/>
  <path class="st8" d="M64.72 88.61c3.16 26.4.15 52.59 1.68 79.14-.06 5 .08 10.03-.28 14.91-.62 6.97-1.84 14.79-7.53 19.42-8.02 6.67-18.53 3.02-21.52-6.7-1.35-3.92-1.73-8.33-1.83-12.5.36-29.47-1.53-59.8-.31-89.12-.08-5.16 1.38-11.07 4.19-14.92 3.46-4.96 8.56-7.43 13.37-6.57 7.02 1.15 11.1 9.39 12.21 16.16l.03.17Z"/>
  <path class="st3" d="M110.99 79.33c1.07 41.16.36 149.83 2.39 185.86-.24 3.7-5.5 2.86-8.13 3.15-6.41-.01-17.28.56-23.36-.57-2.47-.56-2.46-2.25-2.43-5.35.83-42.28-.87-152.49.89-182.42 8.52-.65 23.02-.22 30.72-.15z"/>
  <path class="st3" d="M665.42 202.03c4.19-7.42 35.38-53.62 43.8-66.53-8.29-.05-35.34-.04-36.42-.02-31.02 44.31-20.82 54.01-55.03 0-.92-.04-29.85.02-38.41-.01.15 1.29 44.8 63.55 44.89 66.48-37.4 74.14-160.29 172.16-232.64 116-19.25-14.94-30.49-37.96-31.31-62.31-1.01-29.75-2.43-80.32-1.07-95.14.11-.84.74-1.38 1.69-1.71 2.44-.32 27.19-.75 28.22-.84.67-.06.37-3.8.35-22.27-4.42.04-26.05-.07-30.39-.41-.79-32.07 15.91-33.26 43.38-31.75-.26 27.24 1.53 151.17 1 164.79 2.38.02 27.47-.69 33.7-.68.11-4.57-.94-189.72-1.5-189.09-46.48.35-113.53-11.11-110.2 55.82.3 1.95-.88.84-3.35 1.11h-14.54c-.09 5.59 0 20.05-.03 22.92 3.43.12 15.44-.01 16.43.05.5.25 1.27 1.2 1.54 1.5-.12 17.6.09 57 .07 83.71-.01 16.57 2.53 33.07 8 48.71 48.44 138.43 253.44 48.3 306.95-63.34.02-.03.03-.06.05-.08 1.03-1.56 4.11-.62 5.2.46 1.04 1.61 18.91 28.28 25.31 37.93-.85 1.91 30.3.63 39.11.97-10.91-16.19-35.33-52.21-44.81-66.28ZM640.58 229v-.03c0 .01-.01.02-.02.03Z"/>
  <path class="st3" d="M521.02 271.33c25.56-.89 50.89-12.44 58.71-39.44-4.52-.58-25.24-3.45-29.49-3.88-10.61 22.99-46.34 23.76-58.4 1.46-2.06-4.09-5.17-8.91-4.28-18.28 1.29-.69 88-.15 94.55-.71 7-42.85-25.53-81.66-69.08-77.26-89.16 6.69-76.42 145.32 7.98 138.1Zm28.04-81.24c-15.14.24-59.89 0-61.94.08 2.4-40.92 60.93-43.18 61.94-.08"/>
</svg>
