<svg viewBox="103.297 59.066 192.033 88.512" xmlns="http://www.w3.org/2000/svg" version="1.0" fill="currentColor">
  <g class="layer">
    <title>Layer 1</title>
    <path d="M103.297 88.571c0 16.236.082 29.56.22 29.615.11.055 2.473.055 5.247 0l5.055-.082-.165-11.731c-.11-6.456-.192-19.725-.192-29.533V59.066h-10.165zm84.945-28.956c-6.978 1.841-11.044 7.06-11.044 14.176v2.555l-2.527.082-2.555.082-.082 3.901-.082 3.929h5.11l.027 16.703c.027 11.319.137 17.308.357 18.681.907 5.742 4.67 12.857 9.148 17.39 1.758 1.786 5.22 4.313 8.324 6.099 2.308 1.346 6.896 2.967 10.165 3.654 10.412 2.115 23.956-.577 34.753-6.923 6.429-3.764 13.571-9.643 18.984-15.577 3.984-4.368 12.582-15.082 13.901-17.363.577-.962 1.126-1.758 1.236-1.703.082.027 1.456 1.978 3.022 4.313 1.593 2.335 3.516 5.22 4.313 6.374l1.456 2.143h6.154c3.379 0 6.154-.082 6.154-.192 0-.082-.302-.549-.632-1.016-.357-.467-3.049-4.313-5.962-8.516-2.912-4.231-5.824-8.434-6.484-9.341s-1.209-1.758-1.209-1.923c0-.137.302-.632.632-1.099a91 91 0 0 0 1.703-2.363c1.566-2.253 5.687-8.077 9.148-12.995l3.078-4.312h-12.005l-1.401 2.115c-1.566 2.39-7.115 10.522-7.308 10.714-.055.055-.385-.357-.742-.934-1.593-2.637-4.863-7.582-6.374-9.643l-1.676-2.253h-6.264c-3.434 0-6.264.082-6.264.165 0 .11.357.577.824 1.099.907 1.044 4.89 6.621 8.104 11.374 3.489 5.137 5.137 7.527 5.549 7.995.357.412.137.797-1.731 3.297-7.5 10.082-11.758 15.22-16.429 19.918-10.22 10.247-19.533 15.467-30.769 17.28-3.077.495-8.077.549-10.714.137-9.368-1.484-17.39-8.434-19.835-17.17-.632-2.253-.824-8.324-.714-23.571l.055-12.555h9.341v-7.967h-9.423l.192-2.61c.22-3.242.879-4.56 2.775-5.769 1.319-.824 1.346-.824 5.549-.824h4.205v25.467c0 14.011.082 25.495.192 25.549.137.055 2.473.055 5.247 0l5-.082v-59.04l-10.22.027c-9.176 0-10.467.055-12.253.522M131.73 75.824c-5.907.879-10.495 3.709-12.335 7.555-.604 1.291-.797 2.17-.907 4.121-.247 4.396 1.291 7.527 4.808 9.835 2.747 1.813 4.368 2.473 9.808 4.038 4.698 1.346 6.676 2.143 7.857 3.297 1.209 1.126 1.401 2.253.659 3.681-.852 1.648-2.445 2.308-5.522 2.335-4.011.055-6.484-1.236-7.967-4.148l-.658-1.318h-5.22c-4.066 0-5.22.082-5.22.357 0 .962.934 3.764 1.703 5.11 1.181 2.06 3.956 4.78 5.907 5.742 3.269 1.648 5.027 2.033 10.027 2.198 3.654.082 5.027.027 6.731-.357 4.78-1.044 8.736-3.901 10.522-7.665.824-1.731.879-2.143.907-4.67.027-2.473-.055-2.94-.687-4.341-1.044-2.225-1.978-3.379-3.956-4.78-2.225-1.593-3.929-2.253-10.357-4.121-5.632-1.648-6.841-2.143-7.83-3.214-1.236-1.319-.962-3.599.604-4.89s5.632-1.374 8.049-.165c1.456.742 2.225 1.593 2.885 3.214l.412.962 5.165-.082 5.165-.082-.192-1.291c-.22-1.731-1.786-4.945-3.077-6.374-2.445-2.72-6.346-4.423-11.374-4.945-3.077-.302-3.874-.302-5.907 0"/>
    <path d="M232.308 75.852c-5.769.879-10.055 3.297-13.242 7.5-2.555 3.352-3.791 6.511-4.286 10.934-.495 4.78.247 9.368 2.143 13.242 3.929 7.885 11.951 12.143 21.044 11.154 2.94-.33 4.011-.549 5.879-1.264 3.352-1.264 6.401-3.626 8.544-6.621 1.181-1.648 2.527-4.451 2.555-5.247 0-.247-1.236-.33-5.22-.33-3.736 0-5.22.082-5.22.302 0 .714-1.978 2.692-3.626 3.571-1.676.907-1.841.934-4.753.934-2.775 0-3.132-.055-4.451-.742-1.786-.962-3.489-2.692-4.341-4.478-.687-1.401-1.621-4.505-1.401-4.725.055-.055 6.676-.11 14.698-.082h14.589l.275-.687c.357-.934.357-5.027-.027-7.28-.714-4.396-2.363-7.61-5.659-10.907-3.626-3.626-7.198-5.082-13.269-5.412-1.429-.055-3.352 0-4.231.137m6.758 8.764c2.885 1.071 4.533 3.077 5.467 6.676.275 1.071.522 2.005.522 2.033 0 .055-4.341.082-9.643.082-9.066 0-9.643-.027-9.451-.495.082-.247.247-.852.33-1.291.522-2.885 3.104-6.099 5.604-7.06 1.758-.659 5.33-.632 7.17.055M155.22 96.154c0 3.791 0 3.846.659 4.011.357.082 4.093.082 8.297 0l7.665-.137.082-3.874.082-3.846H155.22z"/>
  </g>
</svg>
